<svg width="24" height="24" viewBox="0 0 24 24" fill="none" xmlns="http://www.w3.org/2000/svg">
<path d="M19.4678 16.8136C21.1765 15.1049 22.0884 12.8184 22.0356 10.3752C21.9834 7.96697 21.006 5.69199 19.2833 3.96924L18.2227 5.02988C19.661 6.4553 20.4903 8.38312 20.5359 10.4076C20.5799 12.4379 19.8239 14.3362 18.4049 15.7553L16.1259 18.0545L16.128 13.8749L14.628 13.8742L14.6246 20.6245H21.378V19.1245H17.1773L19.4678 16.8136Z" fill="#583FBC"/>
<path d="M2.24706 5.25H6.44772L4.15722 7.56094C2.44849 9.26958 1.53663 11.5561 1.58945 13.9993C1.64281 16.4104 2.62945 18.7069 4.34172 20.4053L5.40236 19.3446C3.96406 17.9192 3.13479 15.9914 3.08908 13.967C3.04516 11.9366 3.80116 10.0383 5.22016 8.61933L7.49908 6.32006L7.49702 10.4997L8.99702 10.5004L9.0004 3.75H2.24706V5.25Z" fill="#583FBC"/>
</svg>
