<svg width="24" height="24" viewBox="0 0 24 24" fill="none" xmlns="http://www.w3.org/2000/svg">
<path fill-rule="evenodd" clip-rule="evenodd" d="M3.70247 10.7662C3.70247 6.85727 6.87126 3.68848 10.7802 3.68848C14.6891 3.68848 17.8578 6.85727 17.8578 10.7662C17.8578 14.6751 14.6891 17.8439 10.7802 17.8439C6.87126 17.8439 3.70247 14.6751 3.70247 10.7662ZM10.7802 1.98601C5.93101 1.98601 2 5.91702 2 10.7662C2 15.6153 5.93101 19.5463 10.7802 19.5463C13.0537 19.5463 15.1253 18.6822 16.6847 17.2645L20.5468 21.1267C20.8793 21.4591 21.4182 21.4591 21.7507 21.1267C22.0831 20.7943 22.0831 20.2553 21.7507 19.9229L17.8294 16.0016C18.9168 14.5398 19.5603 12.7281 19.5603 10.7662C19.5603 5.91702 15.6293 1.98601 10.7802 1.98601Z" fill="#181945"/>
</svg>
